<svg width="196" height="171" viewBox="0 0 196 171" fill="none" xmlns="http://www.w3.org/2000/svg">
<g filter="url(#filter0_d_262_5182)">
<rect x="13" y="12" width="170" height="145" rx="4" fill="#DB4444"/>
<path d="M56.824 115.848V127H55.368V121.944H49.688V127H48.232V115.848H49.688V120.744H55.368V115.848H56.824ZM67.3101 122.28C67.3101 122.557 67.2941 122.851 67.2621 123.16H60.2541C60.3075 124.024 60.6008 124.701 61.1341 125.192C61.6781 125.672 62.3341 125.912 63.1021 125.912C63.7315 125.912 64.2541 125.768 64.6701 125.48C65.0968 125.181 65.3955 124.787 65.5661 124.296H67.1341C66.8995 125.139 66.4301 125.827 65.7261 126.36C65.0221 126.883 64.1475 127.144 63.1021 127.144C62.2701 127.144 61.5235 126.957 60.8621 126.584C60.2115 126.211 59.6995 125.683 59.3261 125C58.9528 124.307 58.7661 123.507 58.7661 122.6C58.7661 121.693 58.9475 120.899 59.3101 120.216C59.6728 119.533 60.1795 119.011 60.8301 118.648C61.4915 118.275 62.2488 118.088 63.1021 118.088C63.9341 118.088 64.6701 118.269 65.3101 118.632C65.9501 118.995 66.4408 119.496 66.7821 120.136C67.1341 120.765 67.3101 121.48 67.3101 122.28ZM65.8061 121.976C65.8061 121.421 65.6835 120.947 65.4381 120.552C65.1928 120.147 64.8568 119.843 64.4301 119.64C64.0141 119.427 63.5501 119.32 63.0381 119.32C62.3021 119.32 61.6728 119.555 61.1501 120.024C60.6381 120.493 60.3448 121.144 60.2701 121.976H65.8061ZM68.688 122.584C68.688 121.688 68.8693 120.904 69.232 120.232C69.5947 119.549 70.0907 119.021 70.72 118.648C71.36 118.275 72.0693 118.088 72.848 118.088C73.616 118.088 74.2827 118.253 74.848 118.584C75.4133 118.915 75.8347 119.331 76.112 119.832V118.232H77.584V127H76.112V125.368C75.824 125.88 75.392 126.307 74.816 126.648C74.2507 126.979 73.5893 127.144 72.832 127.144C72.0533 127.144 71.3493 126.952 70.72 126.568C70.0907 126.184 69.5947 125.645 69.232 124.952C68.8693 124.259 68.688 123.469 68.688 122.584ZM76.112 122.6C76.112 121.939 75.9787 121.363 75.712 120.872C75.4453 120.381 75.0827 120.008 74.624 119.752C74.176 119.485 73.68 119.352 73.136 119.352C72.592 119.352 72.096 119.48 71.648 119.736C71.2 119.992 70.8427 120.365 70.576 120.856C70.3093 121.347 70.176 121.923 70.176 122.584C70.176 123.256 70.3093 123.843 70.576 124.344C70.8427 124.835 71.2 125.213 71.648 125.48C72.096 125.736 72.592 125.864 73.136 125.864C73.68 125.864 74.176 125.736 74.624 125.48C75.0827 125.213 75.4453 124.835 75.712 124.344C75.9787 123.843 76.112 123.261 76.112 122.6ZM79.5005 122.584C79.5005 121.688 79.6818 120.904 80.0445 120.232C80.4072 119.549 80.9032 119.021 81.5325 118.648C82.1725 118.275 82.8872 118.088 83.6765 118.088C84.3592 118.088 84.9938 118.248 85.5805 118.568C86.1672 118.877 86.6152 119.288 86.9245 119.8V115.16H88.3965V127H86.9245V125.352C86.6365 125.875 86.2098 126.307 85.6445 126.648C85.0792 126.979 84.4178 127.144 83.6605 127.144C82.8818 127.144 82.1725 126.952 81.5325 126.568C80.9032 126.184 80.4072 125.645 80.0445 124.952C79.6818 124.259 79.5005 123.469 79.5005 122.584ZM86.9245 122.6C86.9245 121.939 86.7912 121.363 86.5245 120.872C86.2578 120.381 85.8952 120.008 85.4365 119.752C84.9885 119.485 84.4925 119.352 83.9485 119.352C83.4045 119.352 82.9085 119.48 82.4605 119.736C82.0125 119.992 81.6552 120.365 81.3885 120.856C81.1218 121.347 80.9885 121.923 80.9885 122.584C80.9885 123.256 81.1218 123.843 81.3885 124.344C81.6552 124.835 82.0125 125.213 82.4605 125.48C82.9085 125.736 83.4045 125.864 83.9485 125.864C84.4925 125.864 84.9885 125.736 85.4365 125.48C85.8952 125.213 86.2578 124.835 86.5245 124.344C86.7912 123.843 86.9245 123.261 86.9245 122.6ZM98.313 119.112C98.313 120.04 97.993 120.813 97.353 121.432C96.7237 122.04 95.7583 122.344 94.457 122.344H92.313V127H90.857V115.848H94.457C95.7157 115.848 96.6703 116.152 97.321 116.76C97.9823 117.368 98.313 118.152 98.313 119.112ZM94.457 121.144C95.2677 121.144 95.865 120.968 96.249 120.616C96.633 120.264 96.825 119.763 96.825 119.112C96.825 117.736 96.0357 117.048 94.457 117.048H92.313V121.144H94.457ZM104.475 118.072C105.136 118.072 105.733 118.216 106.267 118.504C106.8 118.781 107.216 119.203 107.515 119.768C107.824 120.333 107.979 121.021 107.979 121.832V127H106.539V122.04C106.539 121.165 106.32 120.499 105.883 120.04C105.445 119.571 104.848 119.336 104.091 119.336C103.323 119.336 102.709 119.576 102.251 120.056C101.803 120.536 101.579 121.235 101.579 122.152V127H100.123V115.16H101.579V119.48C101.867 119.032 102.261 118.685 102.763 118.44C103.275 118.195 103.845 118.072 104.475 118.072ZM114.181 127.144C113.36 127.144 112.613 126.957 111.941 126.584C111.28 126.211 110.757 125.683 110.373 125C110 124.307 109.813 123.507 109.813 122.6C109.813 121.704 110.005 120.915 110.389 120.232C110.784 119.539 111.317 119.011 111.989 118.648C112.661 118.275 113.413 118.088 114.245 118.088C115.077 118.088 115.829 118.275 116.501 118.648C117.173 119.011 117.701 119.533 118.085 120.216C118.48 120.899 118.677 121.693 118.677 122.6C118.677 123.507 118.474 124.307 118.069 125C117.674 125.683 117.136 126.211 116.453 126.584C115.77 126.957 115.013 127.144 114.181 127.144ZM114.181 125.864C114.704 125.864 115.194 125.741 115.653 125.496C116.112 125.251 116.48 124.883 116.757 124.392C117.045 123.901 117.189 123.304 117.189 122.6C117.189 121.896 117.05 121.299 116.773 120.808C116.496 120.317 116.133 119.955 115.685 119.72C115.237 119.475 114.752 119.352 114.229 119.352C113.696 119.352 113.205 119.475 112.757 119.72C112.32 119.955 111.968 120.317 111.701 120.808C111.434 121.299 111.301 121.896 111.301 122.6C111.301 123.315 111.429 123.917 111.685 124.408C111.952 124.899 112.304 125.267 112.741 125.512C113.178 125.747 113.658 125.864 114.181 125.864ZM124.863 118.072C125.93 118.072 126.794 118.397 127.455 119.048C128.117 119.688 128.447 120.616 128.447 121.832V127H127.007V122.04C127.007 121.165 126.789 120.499 126.351 120.04C125.914 119.571 125.317 119.336 124.559 119.336C123.791 119.336 123.178 119.576 122.719 120.056C122.271 120.536 122.047 121.235 122.047 122.152V127H120.591V118.232H122.047V119.48C122.335 119.032 122.725 118.685 123.215 118.44C123.717 118.195 124.266 118.072 124.863 118.072ZM138.826 122.28C138.826 122.557 138.81 122.851 138.778 123.16H131.77C131.823 124.024 132.116 124.701 132.65 125.192C133.194 125.672 133.85 125.912 134.618 125.912C135.247 125.912 135.77 125.768 136.186 125.48C136.612 125.181 136.911 124.787 137.082 124.296H138.65C138.415 125.139 137.946 125.827 137.242 126.36C136.538 126.883 135.663 127.144 134.618 127.144C133.786 127.144 133.039 126.957 132.378 126.584C131.727 126.211 131.215 125.683 130.842 125C130.468 124.307 130.282 123.507 130.282 122.6C130.282 121.693 130.463 120.899 130.826 120.216C131.188 119.533 131.695 119.011 132.346 118.648C133.007 118.275 133.764 118.088 134.618 118.088C135.45 118.088 136.186 118.269 136.826 118.632C137.466 118.995 137.956 119.496 138.298 120.136C138.65 120.765 138.826 121.48 138.826 122.28ZM137.322 121.976C137.322 121.421 137.199 120.947 136.954 120.552C136.708 120.147 136.372 119.843 135.946 119.64C135.53 119.427 135.066 119.32 134.554 119.32C133.818 119.32 133.188 119.555 132.666 120.024C132.154 120.493 131.86 121.144 131.786 121.976H137.322ZM143.852 127.144C143.18 127.144 142.577 127.032 142.044 126.808C141.51 126.573 141.089 126.253 140.78 125.848C140.47 125.432 140.3 124.957 140.268 124.424H141.772C141.814 124.861 142.017 125.219 142.38 125.496C142.753 125.773 143.238 125.912 143.836 125.912C144.39 125.912 144.828 125.789 145.148 125.544C145.468 125.299 145.628 124.989 145.628 124.616C145.628 124.232 145.457 123.949 145.116 123.768C144.774 123.576 144.246 123.389 143.532 123.208C142.881 123.037 142.348 122.867 141.932 122.696C141.526 122.515 141.174 122.253 140.876 121.912C140.588 121.56 140.444 121.101 140.444 120.536C140.444 120.088 140.577 119.677 140.844 119.304C141.11 118.931 141.489 118.637 141.98 118.424C142.47 118.2 143.03 118.088 143.66 118.088C144.63 118.088 145.414 118.333 146.012 118.824C146.609 119.315 146.929 119.987 146.972 120.84H145.516C145.484 120.381 145.297 120.013 144.956 119.736C144.625 119.459 144.177 119.32 143.612 119.32C143.089 119.32 142.673 119.432 142.364 119.656C142.054 119.88 141.9 120.173 141.9 120.536C141.9 120.824 141.99 121.064 142.172 121.256C142.364 121.437 142.598 121.587 142.876 121.704C143.164 121.811 143.558 121.933 144.06 122.072C144.689 122.243 145.201 122.413 145.596 122.584C145.99 122.744 146.326 122.989 146.604 123.32C146.892 123.651 147.041 124.083 147.052 124.616C147.052 125.096 146.918 125.528 146.652 125.912C146.385 126.296 146.006 126.6 145.516 126.824C145.036 127.037 144.481 127.144 143.852 127.144Z" fill="white"/>
<g clip-path="url(#clip0_262_5182)">
<path d="M86.3334 67.3333H84C81.4227 67.3333 79.3334 69.4227 79.3334 72V79C79.3334 81.5773 81.4227 83.6666 84 83.6666H86.3334C88.9107 83.6666 91 81.5773 91 79V72C91 69.4227 88.9107 67.3333 86.3334 67.3333Z" stroke="white" stroke-width="2" stroke-linecap="round" stroke-linejoin="round"/>
<path d="M112 67.3333H109.667C107.089 67.3333 105 69.4227 105 72V79C105 81.5773 107.089 83.6666 109.667 83.6666H112C114.577 83.6666 116.667 81.5773 116.667 79V72C116.667 69.4227 114.577 67.3333 112 67.3333Z" stroke="white" stroke-width="2" stroke-linecap="round" stroke-linejoin="round"/>
<path d="M79.3334 72V65C79.3334 60.0493 81.3 55.3013 84.8007 51.8007C88.3014 48.3 93.0493 46.3333 98 46.3333C102.951 46.3333 107.699 48.3 111.199 51.8007C114.7 55.3013 116.667 60.0493 116.667 65V72" stroke="white" stroke-width="2" stroke-linecap="round" stroke-linejoin="round"/>
</g>
</g>
<defs>
<filter id="filter0_d_262_5182" x="0" y="0" width="196" height="171" filterUnits="userSpaceOnUse" color-interpolation-filters="sRGB">
<feFlood flood-opacity="0" result="BackgroundImageFix"/>
<feColorMatrix in="SourceAlpha" type="matrix" values="0 0 0 0 0 0 0 0 0 0 0 0 0 0 0 0 0 0 127 0" result="hardAlpha"/>
<feOffset dy="1"/>
<feGaussianBlur stdDeviation="6.5"/>
<feComposite in2="hardAlpha" operator="out"/>
<feColorMatrix type="matrix" values="0 0 0 0 0 0 0 0 0 0 0 0 0 0 0 0 0 0 0.05 0"/>
<feBlend mode="normal" in2="BackgroundImageFix" result="effect1_dropShadow_262_5182"/>
<feBlend mode="normal" in="SourceGraphic" in2="effect1_dropShadow_262_5182" result="shape"/>
</filter>
<clipPath id="clip0_262_5182">
<rect width="56" height="56" fill="white" transform="translate(70 37)"/>
</clipPath>
</defs>
</svg>
