<svg width="196" height="171" viewBox="0 0 196 171" fill="none" xmlns="http://www.w3.org/2000/svg">
<g filter="url(#filter0_d_262_5185)">
<rect x="13" y="12" width="170" height="145" rx="4" fill="#DB4444"/>
<path d="M75.68 119.08C75.3707 118.429 74.9227 117.928 74.336 117.576C73.7493 117.213 73.0667 117.032 72.288 117.032C71.5093 117.032 70.8053 117.213 70.176 117.576C69.5573 117.928 69.0667 118.44 68.704 119.112C68.352 119.773 68.176 120.541 68.176 121.416C68.176 122.291 68.352 123.059 68.704 123.72C69.0667 124.381 69.5573 124.893 70.176 125.256C70.8053 125.608 71.5093 125.784 72.288 125.784C73.376 125.784 74.272 125.459 74.976 124.808C75.68 124.157 76.0907 123.277 76.208 122.168H71.76V120.984H77.76V122.104C77.6747 123.021 77.3867 123.864 76.896 124.632C76.4053 125.389 75.76 125.992 74.96 126.44C74.16 126.877 73.2693 127.096 72.288 127.096C71.2533 127.096 70.3093 126.856 69.456 126.376C68.6027 125.885 67.9253 125.208 67.424 124.344C66.9333 123.48 66.688 122.504 66.688 121.416C66.688 120.328 66.9333 119.352 67.424 118.488C67.9253 117.613 68.6027 116.936 69.456 116.456C70.3093 115.965 71.2533 115.72 72.288 115.72C73.472 115.72 74.5173 116.013 75.424 116.6C76.3413 117.187 77.008 118.013 77.424 119.08H75.68ZM79.1411 122.584C79.1411 121.688 79.3225 120.904 79.6851 120.232C80.0478 119.549 80.5438 119.021 81.1731 118.648C81.8131 118.275 82.5225 118.088 83.3011 118.088C84.0691 118.088 84.7358 118.253 85.3011 118.584C85.8665 118.915 86.2878 119.331 86.5651 119.832V118.232H88.0371V127H86.5651V125.368C86.2771 125.88 85.8451 126.307 85.2691 126.648C84.7038 126.979 84.0425 127.144 83.2851 127.144C82.5065 127.144 81.8025 126.952 81.1731 126.568C80.5438 126.184 80.0478 125.645 79.6851 124.952C79.3225 124.259 79.1411 123.469 79.1411 122.584ZM86.5651 122.6C86.5651 121.939 86.4318 121.363 86.1651 120.872C85.8985 120.381 85.5358 120.008 85.0771 119.752C84.6291 119.485 84.1331 119.352 83.5891 119.352C83.0451 119.352 82.5491 119.48 82.1011 119.736C81.6531 119.992 81.2958 120.365 81.0291 120.856C80.7625 121.347 80.6291 121.923 80.6291 122.584C80.6291 123.256 80.7625 123.843 81.0291 124.344C81.2958 124.835 81.6531 125.213 82.1011 125.48C82.5491 125.736 83.0451 125.864 83.5891 125.864C84.1331 125.864 84.6291 125.736 85.0771 125.48C85.5358 125.213 85.8985 124.835 86.1651 124.344C86.4318 123.843 86.5651 123.261 86.5651 122.6ZM101.042 118.072C101.724 118.072 102.332 118.216 102.866 118.504C103.399 118.781 103.82 119.203 104.13 119.768C104.439 120.333 104.594 121.021 104.594 121.832V127H103.154V122.04C103.154 121.165 102.935 120.499 102.498 120.04C102.071 119.571 101.49 119.336 100.754 119.336C99.9963 119.336 99.3936 119.581 98.9456 120.072C98.4976 120.552 98.2736 121.251 98.2736 122.168V127H96.8336V122.04C96.8336 121.165 96.615 120.499 96.1776 120.04C95.751 119.571 95.1696 119.336 94.4336 119.336C93.6763 119.336 93.0736 119.581 92.6256 120.072C92.1776 120.552 91.9536 121.251 91.9536 122.168V127H90.4976V118.232H91.9536V119.496C92.2416 119.037 92.6256 118.685 93.1056 118.44C93.5963 118.195 94.135 118.072 94.7216 118.072C95.4576 118.072 96.1083 118.237 96.6736 118.568C97.239 118.899 97.6603 119.384 97.9376 120.024C98.183 119.405 98.5883 118.925 99.1536 118.584C99.719 118.243 100.348 118.072 101.042 118.072ZM107.734 116.808C107.457 116.808 107.222 116.712 107.03 116.52C106.838 116.328 106.742 116.093 106.742 115.816C106.742 115.539 106.838 115.304 107.03 115.112C107.222 114.92 107.457 114.824 107.734 114.824C108.001 114.824 108.225 114.92 108.406 115.112C108.598 115.304 108.694 115.539 108.694 115.816C108.694 116.093 108.598 116.328 108.406 116.52C108.225 116.712 108.001 116.808 107.734 116.808ZM108.438 118.232V127H106.982V118.232H108.438ZM115.192 118.072C116.258 118.072 117.122 118.397 117.784 119.048C118.445 119.688 118.776 120.616 118.776 121.832V127H117.336V122.04C117.336 121.165 117.117 120.499 116.68 120.04C116.242 119.571 115.645 119.336 114.888 119.336C114.12 119.336 113.506 119.576 113.048 120.056C112.6 120.536 112.376 121.235 112.376 122.152V127H110.92V118.232H112.376V119.48C112.664 119.032 113.053 118.685 113.544 118.44C114.045 118.195 114.594 118.072 115.192 118.072ZM124.77 118.088C125.527 118.088 126.189 118.253 126.754 118.584C127.33 118.915 127.757 119.331 128.034 119.832V118.232H129.506V127.192C129.506 127.992 129.335 128.701 128.994 129.32C128.653 129.949 128.162 130.44 127.522 130.792C126.893 131.144 126.157 131.32 125.314 131.32C124.162 131.32 123.202 131.048 122.434 130.504C121.666 129.96 121.213 129.219 121.074 128.28H122.514C122.674 128.813 123.005 129.24 123.506 129.56C124.007 129.891 124.61 130.056 125.314 130.056C126.114 130.056 126.765 129.805 127.266 129.304C127.778 128.803 128.034 128.099 128.034 127.192V125.352C127.746 125.864 127.319 126.291 126.754 126.632C126.189 126.973 125.527 127.144 124.77 127.144C123.991 127.144 123.282 126.952 122.642 126.568C122.013 126.184 121.517 125.645 121.154 124.952C120.791 124.259 120.61 123.469 120.61 122.584C120.61 121.688 120.791 120.904 121.154 120.232C121.517 119.549 122.013 119.021 122.642 118.648C123.282 118.275 123.991 118.088 124.77 118.088ZM128.034 122.6C128.034 121.939 127.901 121.363 127.634 120.872C127.367 120.381 127.005 120.008 126.546 119.752C126.098 119.485 125.602 119.352 125.058 119.352C124.514 119.352 124.018 119.48 123.57 119.736C123.122 119.992 122.765 120.365 122.498 120.856C122.231 121.347 122.098 121.923 122.098 122.584C122.098 123.256 122.231 123.843 122.498 124.344C122.765 124.835 123.122 125.213 123.57 125.48C124.018 125.736 124.514 125.864 125.058 125.864C125.602 125.864 126.098 125.736 126.546 125.48C127.005 125.213 127.367 124.835 127.634 124.344C127.901 123.843 128.034 123.261 128.034 122.6Z" fill="white"/>
<g clip-path="url(#clip0_262_5185)">
<path d="M116.667 51H79.3333C76.756 51 74.6666 53.0893 74.6666 55.6667V74.3333C74.6666 76.9107 76.756 79 79.3333 79H116.667C119.244 79 121.333 76.9107 121.333 74.3333V55.6667C121.333 53.0893 119.244 51 116.667 51Z" stroke="white" stroke-width="2" stroke-linecap="round" stroke-linejoin="round"/>
<path d="M84 65H93.3333M88.6667 60.3333V69.6666" stroke="white" stroke-width="2" stroke-linecap="round" stroke-linejoin="round"/>
<path d="M105 62.6667V62.6909" stroke="white" stroke-width="3" stroke-linecap="round" stroke-linejoin="round"/>
<path d="M112 67.3333V67.3574" stroke="white" stroke-width="3" stroke-linecap="round" stroke-linejoin="round"/>
</g>
</g>
<defs>
<filter id="filter0_d_262_5185" x="0" y="0" width="196" height="171" filterUnits="userSpaceOnUse" color-interpolation-filters="sRGB">
<feFlood flood-opacity="0" result="BackgroundImageFix"/>
<feColorMatrix in="SourceAlpha" type="matrix" values="0 0 0 0 0 0 0 0 0 0 0 0 0 0 0 0 0 0 127 0" result="hardAlpha"/>
<feOffset dy="1"/>
<feGaussianBlur stdDeviation="6.5"/>
<feComposite in2="hardAlpha" operator="out"/>
<feColorMatrix type="matrix" values="0 0 0 0 0 0 0 0 0 0 0 0 0 0 0 0 0 0 0.05 0"/>
<feBlend mode="normal" in2="BackgroundImageFix" result="effect1_dropShadow_262_5185"/>
<feBlend mode="normal" in="SourceGraphic" in2="effect1_dropShadow_262_5185" result="shape"/>
</filter>
<clipPath id="clip0_262_5185">
<rect width="56" height="56" fill="white" transform="translate(70 37)"/>
</clipPath>
</defs>
</svg>
