<svg width="196" height="171" viewBox="0 0 196 171" fill="none" xmlns="http://www.w3.org/2000/svg">
<g filter="url(#filter0_d_262_5170)">
<rect x="13" y="12" width="170" height="145" rx="4" fill="#DB4444"/>
<path d="M76.688 119.112C76.688 120.04 76.368 120.813 75.728 121.432C75.0987 122.04 74.1333 122.344 72.832 122.344H70.688V127H69.232V115.848H72.832C74.0907 115.848 75.0453 116.152 75.696 116.76C76.3573 117.368 76.688 118.152 76.688 119.112ZM72.832 121.144C73.6427 121.144 74.24 120.968 74.624 120.616C75.008 120.264 75.2 119.763 75.2 119.112C75.2 117.736 74.4107 117.048 72.832 117.048H70.688V121.144H72.832ZM82.8496 118.072C83.511 118.072 84.1083 118.216 84.6416 118.504C85.175 118.781 85.591 119.203 85.8896 119.768C86.199 120.333 86.3536 121.021 86.3536 121.832V127H84.9136V122.04C84.9136 121.165 84.695 120.499 84.2576 120.04C83.8203 119.571 83.223 119.336 82.4656 119.336C81.6976 119.336 81.0843 119.576 80.6256 120.056C80.1776 120.536 79.9536 121.235 79.9536 122.152V127H78.4976V115.16H79.9536V119.48C80.2416 119.032 80.6363 118.685 81.1376 118.44C81.6496 118.195 82.2203 118.072 82.8496 118.072ZM92.556 127.144C91.7347 127.144 90.988 126.957 90.316 126.584C89.6547 126.211 89.132 125.683 88.748 125C88.3747 124.307 88.188 123.507 88.188 122.6C88.188 121.704 88.38 120.915 88.764 120.232C89.1587 119.539 89.692 119.011 90.364 118.648C91.036 118.275 91.788 118.088 92.62 118.088C93.452 118.088 94.204 118.275 94.876 118.648C95.548 119.011 96.076 119.533 96.46 120.216C96.8547 120.899 97.052 121.693 97.052 122.6C97.052 123.507 96.8493 124.307 96.444 125C96.0493 125.683 95.5107 126.211 94.828 126.584C94.1453 126.957 93.388 127.144 92.556 127.144ZM92.556 125.864C93.0787 125.864 93.5693 125.741 94.028 125.496C94.4867 125.251 94.8547 124.883 95.132 124.392C95.42 123.901 95.564 123.304 95.564 122.6C95.564 121.896 95.4253 121.299 95.148 120.808C94.8707 120.317 94.508 119.955 94.06 119.72C93.612 119.475 93.1267 119.352 92.604 119.352C92.0707 119.352 91.58 119.475 91.132 119.72C90.6947 119.955 90.3427 120.317 90.076 120.808C89.8093 121.299 89.676 121.896 89.676 122.6C89.676 123.315 89.804 123.917 90.06 124.408C90.3267 124.899 90.6787 125.267 91.116 125.512C91.5533 125.747 92.0333 125.864 92.556 125.864ZM103.238 118.072C104.305 118.072 105.169 118.397 105.83 119.048C106.492 119.688 106.822 120.616 106.822 121.832V127H105.382V122.04C105.382 121.165 105.164 120.499 104.726 120.04C104.289 119.571 103.692 119.336 102.934 119.336C102.166 119.336 101.553 119.576 101.094 120.056C100.646 120.536 100.422 121.235 100.422 122.152V127H98.9664V118.232H100.422V119.48C100.71 119.032 101.1 118.685 101.59 118.44C102.092 118.195 102.641 118.072 103.238 118.072ZM117.201 122.28C117.201 122.557 117.185 122.851 117.153 123.16H110.145C110.198 124.024 110.491 124.701 111.025 125.192C111.569 125.672 112.225 125.912 112.993 125.912C113.622 125.912 114.145 125.768 114.561 125.48C114.987 125.181 115.286 124.787 115.457 124.296H117.025C116.79 125.139 116.321 125.827 115.617 126.36C114.913 126.883 114.038 127.144 112.993 127.144C112.161 127.144 111.414 126.957 110.753 126.584C110.102 126.211 109.59 125.683 109.217 125C108.843 124.307 108.657 123.507 108.657 122.6C108.657 121.693 108.838 120.899 109.201 120.216C109.563 119.533 110.07 119.011 110.721 118.648C111.382 118.275 112.139 118.088 112.993 118.088C113.825 118.088 114.561 118.269 115.201 118.632C115.841 118.995 116.331 119.496 116.673 120.136C117.025 120.765 117.201 121.48 117.201 122.28ZM115.697 121.976C115.697 121.421 115.574 120.947 115.329 120.552C115.083 120.147 114.747 119.843 114.321 119.64C113.905 119.427 113.441 119.32 112.929 119.32C112.193 119.32 111.563 119.555 111.041 120.024C110.529 120.493 110.235 121.144 110.161 121.976H115.697ZM122.227 127.144C121.555 127.144 120.952 127.032 120.419 126.808C119.885 126.573 119.464 126.253 119.155 125.848C118.845 125.432 118.675 124.957 118.643 124.424H120.147C120.189 124.861 120.392 125.219 120.755 125.496C121.128 125.773 121.613 125.912 122.211 125.912C122.765 125.912 123.203 125.789 123.523 125.544C123.843 125.299 124.003 124.989 124.003 124.616C124.003 124.232 123.832 123.949 123.491 123.768C123.149 123.576 122.621 123.389 121.907 123.208C121.256 123.037 120.723 122.867 120.307 122.696C119.901 122.515 119.549 122.253 119.251 121.912C118.963 121.56 118.819 121.101 118.819 120.536C118.819 120.088 118.952 119.677 119.219 119.304C119.485 118.931 119.864 118.637 120.355 118.424C120.845 118.2 121.405 118.088 122.035 118.088C123.005 118.088 123.789 118.333 124.387 118.824C124.984 119.315 125.304 119.987 125.347 120.84H123.891C123.859 120.381 123.672 120.013 123.331 119.736C123 119.459 122.552 119.32 121.987 119.32C121.464 119.32 121.048 119.432 120.739 119.656C120.429 119.88 120.275 120.173 120.275 120.536C120.275 120.824 120.365 121.064 120.547 121.256C120.739 121.437 120.973 121.587 121.251 121.704C121.539 121.811 121.933 121.933 122.435 122.072C123.064 122.243 123.576 122.413 123.971 122.584C124.365 122.744 124.701 122.989 124.979 123.32C125.267 123.651 125.416 124.083 125.427 124.616C125.427 125.096 125.293 125.528 125.027 125.912C124.76 126.296 124.381 126.6 123.891 126.824C123.411 127.037 122.856 127.144 122.227 127.144Z" fill="white"/>
<g clip-path="url(#clip0_262_5170)">
<path d="M108.938 43.125H87.0625C85.5523 43.125 84.3281 44.3492 84.3281 45.8594V84.1406C84.3281 85.6508 85.5523 86.875 87.0625 86.875H108.938C110.448 86.875 111.672 85.6508 111.672 84.1406V45.8594C111.672 44.3492 110.448 43.125 108.938 43.125Z" stroke="white" stroke-width="2" stroke-linecap="round" stroke-linejoin="round"/>
<path d="M95.6666 44H101.135" stroke="white" stroke-width="3" stroke-linecap="round" stroke-linejoin="round"/>
<path d="M98 81.0052V81.0305" stroke="white" stroke-width="2.5" stroke-linecap="round" stroke-linejoin="round"/>
<line x1="85.1666" y1="76.8333" x2="110.833" y2="76.8333" stroke="white" stroke-width="2"/>
</g>
</g>
<defs>
<filter id="filter0_d_262_5170" x="0" y="0" width="196" height="171" filterUnits="userSpaceOnUse" color-interpolation-filters="sRGB">
<feFlood flood-opacity="0" result="BackgroundImageFix"/>
<feColorMatrix in="SourceAlpha" type="matrix" values="0 0 0 0 0 0 0 0 0 0 0 0 0 0 0 0 0 0 127 0" result="hardAlpha"/>
<feOffset dy="1"/>
<feGaussianBlur stdDeviation="6.5"/>
<feComposite in2="hardAlpha" operator="out"/>
<feColorMatrix type="matrix" values="0 0 0 0 0 0 0 0 0 0 0 0 0 0 0 0 0 0 0.05 0"/>
<feBlend mode="normal" in2="BackgroundImageFix" result="effect1_dropShadow_262_5170"/>
<feBlend mode="normal" in="SourceGraphic" in2="effect1_dropShadow_262_5170" result="shape"/>
</filter>
<clipPath id="clip0_262_5170">
<rect width="56" height="56" fill="white" transform="translate(70 37)"/>
</clipPath>
</defs>
</svg>
