<svg width="196" height="171" viewBox="0 0 196 171" fill="none" xmlns="http://www.w3.org/2000/svg">
<g filter="url(#filter0_d_262_5173)">
<rect x="13" y="12" width="170" height="145" rx="4" fill="#DB4444"/>
<path d="M53.688 121.416C53.688 120.328 53.9333 119.352 54.424 118.488C54.9147 117.613 55.5813 116.931 56.424 116.44C57.2773 115.949 58.2213 115.704 59.256 115.704C60.472 115.704 61.5333 115.997 62.44 116.584C63.3467 117.171 64.008 118.003 64.424 119.08H62.68C62.3707 118.408 61.9227 117.891 61.336 117.528C60.76 117.165 60.0667 116.984 59.256 116.984C58.4773 116.984 57.7787 117.165 57.16 117.528C56.5413 117.891 56.056 118.408 55.704 119.08C55.352 119.741 55.176 120.52 55.176 121.416C55.176 122.301 55.352 123.08 55.704 123.752C56.056 124.413 56.5413 124.925 57.16 125.288C57.7787 125.651 58.4773 125.832 59.256 125.832C60.0667 125.832 60.76 125.656 61.336 125.304C61.9227 124.941 62.3707 124.424 62.68 123.752H64.424C64.008 124.819 63.3467 125.645 62.44 126.232C61.5333 126.808 60.472 127.096 59.256 127.096C58.2213 127.096 57.2773 126.856 56.424 126.376C55.5813 125.885 54.9147 125.208 54.424 124.344C53.9333 123.48 53.688 122.504 53.688 121.416ZM70.4154 127.144C69.594 127.144 68.8474 126.957 68.1754 126.584C67.514 126.211 66.9914 125.683 66.6074 125C66.234 124.307 66.0474 123.507 66.0474 122.6C66.0474 121.704 66.2394 120.915 66.6234 120.232C67.018 119.539 67.5514 119.011 68.2234 118.648C68.8954 118.275 69.6474 118.088 70.4794 118.088C71.3114 118.088 72.0634 118.275 72.7354 118.648C73.4074 119.011 73.9354 119.533 74.3194 120.216C74.714 120.899 74.9114 121.693 74.9114 122.6C74.9114 123.507 74.7087 124.307 74.3034 125C73.9087 125.683 73.37 126.211 72.6874 126.584C72.0047 126.957 71.2474 127.144 70.4154 127.144ZM70.4154 125.864C70.938 125.864 71.4287 125.741 71.8874 125.496C72.346 125.251 72.714 124.883 72.9914 124.392C73.2794 123.901 73.4234 123.304 73.4234 122.6C73.4234 121.896 73.2847 121.299 73.0074 120.808C72.73 120.317 72.3674 119.955 71.9194 119.72C71.4714 119.475 70.986 119.352 70.4634 119.352C69.93 119.352 69.4394 119.475 68.9914 119.72C68.554 119.955 68.202 120.317 67.9354 120.808C67.6687 121.299 67.5354 121.896 67.5354 122.6C67.5354 123.315 67.6634 123.917 67.9194 124.408C68.186 124.899 68.538 125.267 68.9754 125.512C69.4127 125.747 69.8927 125.864 70.4154 125.864ZM87.3698 118.072C88.0524 118.072 88.6604 118.216 89.1938 118.504C89.7271 118.781 90.1484 119.203 90.4578 119.768C90.7671 120.333 90.9218 121.021 90.9218 121.832V127H89.4818V122.04C89.4818 121.165 89.2631 120.499 88.8258 120.04C88.3991 119.571 87.8178 119.336 87.0818 119.336C86.3244 119.336 85.7218 119.581 85.2738 120.072C84.8258 120.552 84.6018 121.251 84.6018 122.168V127H83.1618V122.04C83.1618 121.165 82.9431 120.499 82.5058 120.04C82.0791 119.571 81.4978 119.336 80.7618 119.336C80.0044 119.336 79.4018 119.581 78.9538 120.072C78.5058 120.552 78.2818 121.251 78.2818 122.168V127H76.8258V118.232H78.2818V119.496C78.5698 119.037 78.9538 118.685 79.4338 118.44C79.9244 118.195 80.4631 118.072 81.0498 118.072C81.7858 118.072 82.4364 118.237 83.0018 118.568C83.5671 118.899 83.9884 119.384 84.2658 120.024C84.5111 119.405 84.9164 118.925 85.4818 118.584C86.0471 118.243 86.6764 118.072 87.3698 118.072ZM94.7661 119.848C95.0541 119.347 95.4808 118.931 96.0461 118.6C96.6221 118.259 97.2888 118.088 98.0461 118.088C98.8248 118.088 99.5288 118.275 100.158 118.648C100.798 119.021 101.299 119.549 101.662 120.232C102.025 120.904 102.206 121.688 102.206 122.584C102.206 123.469 102.025 124.259 101.662 124.952C101.299 125.645 100.798 126.184 100.158 126.568C99.5288 126.952 98.8248 127.144 98.0461 127.144C97.2995 127.144 96.6381 126.979 96.0621 126.648C95.4968 126.307 95.0648 125.885 94.7661 125.384V131.16H93.3101V118.232H94.7661V119.848ZM100.718 122.584C100.718 121.923 100.585 121.347 100.318 120.856C100.051 120.365 99.6888 119.992 99.2301 119.736C98.7821 119.48 98.2861 119.352 97.7421 119.352C97.2088 119.352 96.7128 119.485 96.2541 119.752C95.8061 120.008 95.4435 120.387 95.1661 120.888C94.8995 121.379 94.7661 121.949 94.7661 122.6C94.7661 123.261 94.8995 123.843 95.1661 124.344C95.4435 124.835 95.8061 125.213 96.2541 125.48C96.7128 125.736 97.2088 125.864 97.7421 125.864C98.2861 125.864 98.7821 125.736 99.2301 125.48C99.6888 125.213 100.051 124.835 100.318 124.344C100.585 123.843 100.718 123.256 100.718 122.584ZM111.899 118.232V127H110.443V125.704C110.165 126.152 109.776 126.504 109.275 126.76C108.784 127.005 108.24 127.128 107.643 127.128C106.96 127.128 106.347 126.989 105.803 126.712C105.259 126.424 104.827 125.997 104.507 125.432C104.197 124.867 104.043 124.179 104.043 123.368V118.232H105.483V123.176C105.483 124.04 105.701 124.707 106.139 125.176C106.576 125.635 107.173 125.864 107.931 125.864C108.709 125.864 109.323 125.624 109.771 125.144C110.219 124.664 110.443 123.965 110.443 123.048V118.232H111.899ZM116.133 119.432V124.6C116.133 125.027 116.224 125.331 116.405 125.512C116.586 125.683 116.901 125.768 117.349 125.768H118.421V127H117.109C116.298 127 115.69 126.813 115.285 126.44C114.88 126.067 114.677 125.453 114.677 124.6V119.432H113.541V118.232H114.677V116.024H116.133V118.232H118.421V119.432H116.133ZM128.185 122.28C128.185 122.557 128.169 122.851 128.137 123.16H121.129C121.182 124.024 121.476 124.701 122.009 125.192C122.553 125.672 123.209 125.912 123.977 125.912C124.606 125.912 125.129 125.768 125.545 125.48C125.972 125.181 126.27 124.787 126.441 124.296H128.009C127.774 125.139 127.305 125.827 126.601 126.36C125.897 126.883 125.022 127.144 123.977 127.144C123.145 127.144 122.398 126.957 121.737 126.584C121.086 126.211 120.574 125.683 120.201 125C119.828 124.307 119.641 123.507 119.641 122.6C119.641 121.693 119.822 120.899 120.185 120.216C120.548 119.533 121.054 119.011 121.705 118.648C122.366 118.275 123.124 118.088 123.977 118.088C124.809 118.088 125.545 118.269 126.185 118.632C126.825 118.995 127.316 119.496 127.657 120.136C128.009 120.765 128.185 121.48 128.185 122.28ZM126.681 121.976C126.681 121.421 126.558 120.947 126.313 120.552C126.068 120.147 125.732 119.843 125.305 119.64C124.889 119.427 124.425 119.32 123.913 119.32C123.177 119.32 122.548 119.555 122.025 120.024C121.513 120.493 121.22 121.144 121.145 121.976H126.681ZM131.563 119.656C131.819 119.155 132.182 118.765 132.651 118.488C133.131 118.211 133.712 118.072 134.395 118.072V119.576H134.011C132.379 119.576 131.563 120.461 131.563 122.232V127H130.107V118.232H131.563V119.656ZM139.18 127.144C138.508 127.144 137.905 127.032 137.372 126.808C136.838 126.573 136.417 126.253 136.108 125.848C135.798 125.432 135.628 124.957 135.596 124.424H137.1C137.142 124.861 137.345 125.219 137.708 125.496C138.081 125.773 138.566 125.912 139.164 125.912C139.718 125.912 140.156 125.789 140.476 125.544C140.796 125.299 140.956 124.989 140.956 124.616C140.956 124.232 140.785 123.949 140.444 123.768C140.102 123.576 139.574 123.389 138.86 123.208C138.209 123.037 137.676 122.867 137.26 122.696C136.854 122.515 136.502 122.253 136.204 121.912C135.916 121.56 135.772 121.101 135.772 120.536C135.772 120.088 135.905 119.677 136.172 119.304C136.438 118.931 136.817 118.637 137.308 118.424C137.798 118.2 138.358 118.088 138.988 118.088C139.958 118.088 140.742 118.333 141.34 118.824C141.937 119.315 142.257 119.987 142.3 120.84H140.844C140.812 120.381 140.625 120.013 140.284 119.736C139.953 119.459 139.505 119.32 138.94 119.32C138.417 119.32 138.001 119.432 137.692 119.656C137.382 119.88 137.228 120.173 137.228 120.536C137.228 120.824 137.318 121.064 137.5 121.256C137.692 121.437 137.926 121.587 138.204 121.704C138.492 121.811 138.886 121.933 139.388 122.072C140.017 122.243 140.529 122.413 140.924 122.584C141.318 122.744 141.654 122.989 141.932 123.32C142.22 123.651 142.369 124.083 142.38 124.616C142.38 125.096 142.246 125.528 141.98 125.912C141.713 126.296 141.334 126.6 140.844 126.824C140.364 127.037 139.809 127.144 139.18 127.144Z" fill="white"/>
<g clip-path="url(#clip0_262_5173)">
<path d="M117.667 46.3333H80.3333C79.0447 46.3333 78 47.378 78 48.6667V72C78 73.2887 79.0447 74.3333 80.3333 74.3333H117.667C118.955 74.3333 120 73.2887 120 72V48.6667C120 47.378 118.955 46.3333 117.667 46.3333Z" stroke="white" stroke-width="2" stroke-linecap="round" stroke-linejoin="round"/>
<path d="M87.3334 83.6667H110.667" stroke="white" stroke-width="2" stroke-linecap="round" stroke-linejoin="round"/>
<path d="M92 74.3333V83.6667" stroke="white" stroke-width="2" stroke-linecap="round" stroke-linejoin="round"/>
<path d="M106 74.3333V83.6667" stroke="white" stroke-width="2" stroke-linecap="round" stroke-linejoin="round"/>
<path d="M79 69H119" stroke="white" stroke-width="2" stroke-linecap="round"/>
</g>
</g>
<defs>
<filter id="filter0_d_262_5173" x="0" y="0" width="196" height="171" filterUnits="userSpaceOnUse" color-interpolation-filters="sRGB">
<feFlood flood-opacity="0" result="BackgroundImageFix"/>
<feColorMatrix in="SourceAlpha" type="matrix" values="0 0 0 0 0 0 0 0 0 0 0 0 0 0 0 0 0 0 127 0" result="hardAlpha"/>
<feOffset dy="1"/>
<feGaussianBlur stdDeviation="6.5"/>
<feComposite in2="hardAlpha" operator="out"/>
<feColorMatrix type="matrix" values="0 0 0 0 0 0 0 0 0 0 0 0 0 0 0 0 0 0 0.05 0"/>
<feBlend mode="normal" in2="BackgroundImageFix" result="effect1_dropShadow_262_5173"/>
<feBlend mode="normal" in="SourceGraphic" in2="effect1_dropShadow_262_5173" result="shape"/>
</filter>
<clipPath id="clip0_262_5173">
<rect width="56" height="56" fill="white" transform="translate(71 37)"/>
</clipPath>
</defs>
</svg>
