<svg width="196" height="171" viewBox="0 0 196 171" fill="none" xmlns="http://www.w3.org/2000/svg">
<g filter="url(#filter0_d_262_5176)">
<rect x="13" y="12" width="170" height="145" rx="4" fill="#DB4444"/>
<path d="M51.768 127.112C51.032 127.112 50.3707 126.984 49.784 126.728C49.208 126.461 48.7547 126.099 48.424 125.64C48.0933 125.171 47.9227 124.632 47.912 124.024H49.464C49.5173 124.547 49.7307 124.989 50.104 125.352C50.488 125.704 51.0427 125.88 51.768 125.88C52.4613 125.88 53.0053 125.709 53.4 125.368C53.8053 125.016 54.008 124.568 54.008 124.024C54.008 123.597 53.8907 123.251 53.656 122.984C53.4213 122.717 53.128 122.515 52.776 122.376C52.424 122.237 51.9493 122.088 51.352 121.928C50.616 121.736 50.024 121.544 49.576 121.352C49.1387 121.16 48.76 120.861 48.44 120.456C48.1307 120.04 47.976 119.485 47.976 118.792C47.976 118.184 48.1307 117.645 48.44 117.176C48.7493 116.707 49.1813 116.344 49.736 116.088C50.3013 115.832 50.9467 115.704 51.672 115.704C52.7173 115.704 53.5707 115.965 54.232 116.488C54.904 117.011 55.2827 117.704 55.368 118.568H53.768C53.7147 118.141 53.4907 117.768 53.096 117.448C52.7013 117.117 52.1787 116.952 51.528 116.952C50.92 116.952 50.424 117.112 50.04 117.432C49.656 117.741 49.464 118.179 49.464 118.744C49.464 119.149 49.576 119.48 49.8 119.736C50.0347 119.992 50.3173 120.189 50.648 120.328C50.9893 120.456 51.464 120.605 52.072 120.776C52.808 120.979 53.4 121.181 53.848 121.384C54.296 121.576 54.68 121.88 55 122.296C55.32 122.701 55.48 123.256 55.48 123.96C55.48 124.504 55.336 125.016 55.048 125.496C54.76 125.976 54.3333 126.365 53.768 126.664C53.2027 126.963 52.536 127.112 51.768 127.112ZM68.1666 118.072C68.8493 118.072 69.4573 118.216 69.9906 118.504C70.524 118.781 70.9453 119.203 71.2546 119.768C71.564 120.333 71.7186 121.021 71.7186 121.832V127H70.2786V122.04C70.2786 121.165 70.06 120.499 69.6226 120.04C69.196 119.571 68.6146 119.336 67.8786 119.336C67.1213 119.336 66.5186 119.581 66.0706 120.072C65.6226 120.552 65.3986 121.251 65.3986 122.168V127H63.9586V122.04C63.9586 121.165 63.74 120.499 63.3026 120.04C62.876 119.571 62.2946 119.336 61.5586 119.336C60.8013 119.336 60.1986 119.581 59.7506 120.072C59.3026 120.552 59.0786 121.251 59.0786 122.168V127H57.6226V118.232H59.0786V119.496C59.3666 119.037 59.7506 118.685 60.2306 118.44C60.7213 118.195 61.26 118.072 61.8466 118.072C62.5826 118.072 63.2333 118.237 63.7986 118.568C64.364 118.899 64.7853 119.384 65.0626 120.024C65.308 119.405 65.7133 118.925 66.2786 118.584C66.844 118.243 67.4733 118.072 68.1666 118.072ZM73.563 122.584C73.563 121.688 73.7443 120.904 74.107 120.232C74.4697 119.549 74.9657 119.021 75.595 118.648C76.235 118.275 76.9443 118.088 77.723 118.088C78.491 118.088 79.1577 118.253 79.723 118.584C80.2883 118.915 80.7097 119.331 80.987 119.832V118.232H82.459V127H80.987V125.368C80.699 125.88 80.267 126.307 79.691 126.648C79.1257 126.979 78.4643 127.144 77.707 127.144C76.9283 127.144 76.2243 126.952 75.595 126.568C74.9657 126.184 74.4697 125.645 74.107 124.952C73.7443 124.259 73.563 123.469 73.563 122.584ZM80.987 122.6C80.987 121.939 80.8537 121.363 80.587 120.872C80.3203 120.381 79.9577 120.008 79.499 119.752C79.051 119.485 78.555 119.352 78.011 119.352C77.467 119.352 76.971 119.48 76.523 119.736C76.075 119.992 75.7177 120.365 75.451 120.856C75.1843 121.347 75.051 121.923 75.051 122.584C75.051 123.256 75.1843 123.843 75.451 124.344C75.7177 124.835 76.075 125.213 76.523 125.48C76.971 125.736 77.467 125.864 78.011 125.864C78.555 125.864 79.051 125.736 79.499 125.48C79.9577 125.213 80.3203 124.835 80.587 124.344C80.8537 123.843 80.987 123.261 80.987 122.6ZM86.3755 119.656C86.6315 119.155 86.9942 118.765 87.4635 118.488C87.9435 118.211 88.5248 118.072 89.2075 118.072V119.576H88.8235C87.1915 119.576 86.3755 120.461 86.3755 122.232V127H84.9195V118.232H86.3755V119.656ZM92.6643 119.432V124.6C92.6643 125.027 92.7549 125.331 92.9363 125.512C93.1176 125.683 93.4323 125.768 93.8802 125.768H94.9523V127H93.6403C92.8296 127 92.2216 126.813 91.8163 126.44C91.4109 126.067 91.2083 125.453 91.2083 124.6V119.432H90.0723V118.232H91.2083V116.024H92.6643V118.232H94.9523V119.432H92.6643ZM110.732 115.848L107.5 127H105.868L103.276 118.024L100.588 127L98.9724 127.016L95.8524 115.848H97.4044L99.8364 125.304L102.524 115.848H104.156L106.716 125.272L109.164 115.848H110.732ZM111.782 122.584C111.782 121.688 111.963 120.904 112.326 120.232C112.688 119.549 113.184 119.021 113.814 118.648C114.454 118.275 115.163 118.088 115.942 118.088C116.71 118.088 117.376 118.253 117.942 118.584C118.507 118.915 118.928 119.331 119.206 119.832V118.232H120.678V127H119.206V125.368C118.918 125.88 118.486 126.307 117.91 126.648C117.344 126.979 116.683 127.144 115.926 127.144C115.147 127.144 114.443 126.952 113.814 126.568C113.184 126.184 112.688 125.645 112.326 124.952C111.963 124.259 111.782 123.469 111.782 122.584ZM119.206 122.6C119.206 121.939 119.072 121.363 118.806 120.872C118.539 120.381 118.176 120.008 117.718 119.752C117.27 119.485 116.774 119.352 116.23 119.352C115.686 119.352 115.19 119.48 114.742 119.736C114.294 119.992 113.936 120.365 113.67 120.856C113.403 121.347 113.27 121.923 113.27 122.584C113.27 123.256 113.403 123.843 113.67 124.344C113.936 124.835 114.294 125.213 114.742 125.48C115.19 125.736 115.686 125.864 116.23 125.864C116.774 125.864 117.27 125.736 117.718 125.48C118.176 125.213 118.539 124.835 118.806 124.344C119.072 123.843 119.206 123.261 119.206 122.6ZM124.914 119.432V124.6C124.914 125.027 125.005 125.331 125.186 125.512C125.368 125.683 125.682 125.768 126.13 125.768H127.202V127H125.89C125.08 127 124.472 126.813 124.066 126.44C123.661 126.067 123.458 125.453 123.458 124.6V119.432H122.322V118.232H123.458V116.024H124.914V118.232H127.202V119.432H124.914ZM128.422 122.6C128.422 121.693 128.604 120.904 128.966 120.232C129.329 119.549 129.83 119.021 130.47 118.648C131.121 118.275 131.862 118.088 132.694 118.088C133.772 118.088 134.657 118.349 135.35 118.872C136.054 119.395 136.518 120.12 136.742 121.048H135.174C135.025 120.515 134.732 120.093 134.294 119.784C133.868 119.475 133.334 119.32 132.694 119.32C131.862 119.32 131.19 119.608 130.678 120.184C130.166 120.749 129.91 121.555 129.91 122.6C129.91 123.656 130.166 124.472 130.678 125.048C131.19 125.624 131.862 125.912 132.694 125.912C133.334 125.912 133.868 125.763 134.294 125.464C134.721 125.165 135.014 124.739 135.174 124.184H136.742C136.508 125.08 136.038 125.8 135.334 126.344C134.63 126.877 133.75 127.144 132.694 127.144C131.862 127.144 131.121 126.957 130.47 126.584C129.83 126.211 129.329 125.683 128.966 125C128.604 124.317 128.422 123.517 128.422 122.6ZM143.037 118.072C143.698 118.072 144.296 118.216 144.829 118.504C145.362 118.781 145.778 119.203 146.077 119.768C146.386 120.333 146.541 121.021 146.541 121.832V127H145.101V122.04C145.101 121.165 144.882 120.499 144.445 120.04C144.008 119.571 143.41 119.336 142.653 119.336C141.885 119.336 141.272 119.576 140.813 120.056C140.365 120.536 140.141 121.235 140.141 122.152V127H138.685V115.16H140.141V119.48C140.429 119.032 140.824 118.685 141.325 118.44C141.837 118.195 142.408 118.072 143.037 118.072Z" fill="white"/>
<g clip-path="url(#clip0_262_5176)">
<path d="M105 51H91C87.134 51 84 54.134 84 58V72C84 75.866 87.134 79 91 79H105C108.866 79 112 75.866 112 72V58C112 54.134 108.866 51 105 51Z" stroke="white" stroke-width="2" stroke-linecap="round" stroke-linejoin="round"/>
<path d="M91 79V86H105V79" stroke="white" stroke-width="2" stroke-linecap="round" stroke-linejoin="round"/>
<path d="M91 51V44H105V51" stroke="white" stroke-width="2" stroke-linecap="round" stroke-linejoin="round"/>
<line x1="94" y1="60" x2="94" y2="71" stroke="white" stroke-width="2" stroke-linecap="round"/>
<line x1="98" y1="65" x2="98" y2="71" stroke="white" stroke-width="2" stroke-linecap="round"/>
<line x1="102" y1="63" x2="102" y2="71" stroke="white" stroke-width="2" stroke-linecap="round"/>
</g>
</g>
<defs>
<filter id="filter0_d_262_5176" x="0" y="0" width="196" height="171" filterUnits="userSpaceOnUse" color-interpolation-filters="sRGB">
<feFlood flood-opacity="0" result="BackgroundImageFix"/>
<feColorMatrix in="SourceAlpha" type="matrix" values="0 0 0 0 0 0 0 0 0 0 0 0 0 0 0 0 0 0 127 0" result="hardAlpha"/>
<feOffset dy="1"/>
<feGaussianBlur stdDeviation="6.5"/>
<feComposite in2="hardAlpha" operator="out"/>
<feColorMatrix type="matrix" values="0 0 0 0 0 0 0 0 0 0 0 0 0 0 0 0 0 0 0.05 0"/>
<feBlend mode="normal" in2="BackgroundImageFix" result="effect1_dropShadow_262_5176"/>
<feBlend mode="normal" in="SourceGraphic" in2="effect1_dropShadow_262_5176" result="shape"/>
</filter>
<clipPath id="clip0_262_5176">
<rect width="56" height="56" fill="white" transform="translate(70 37)"/>
</clipPath>
</defs>
</svg>
